<!DOCTYPE svg PUBLIC "-//W3C//DTD SVG 1.1//EN" "http://www.w3.org/Graphics/SVG/1.1/DTD/svg11.dtd">

<!-- Uploaded to: SVG Repo, www.svgrepo.com, Transformed by: SVG Repo Mixer Tools -->
<svg width="800px" height="800px" viewBox="0 0 24 24" fill="none" xmlns="http://www.w3.org/2000/svg">

<g id="SVGRepo_bgCarrier" stroke-width="0"/>

<g id="SVGRepo_tracerCarrier" stroke-linecap="round" stroke-linejoin="round"/>

<g id="SVGRepo_iconCarrier"> <path d="M15 8.37003V7.41003C15 4.43003 12.93 3.29003 10.41 4.87003L7.49 6.70003C7.17 6.89003 6.8 7.00003 6.43 7.00003H5C3 7.00003 2 8.00003 2 10V14C2 16 3 17 5 17H7" stroke="currentcolor" stroke-width="1.5" stroke-linecap="round" stroke-linejoin="round"/> <path d="M10.41 19.13C12.93 20.71 15 19.56 15 16.59V12.95" stroke="currentcolor" stroke-width="1.5" stroke-linecap="round" stroke-linejoin="round"/> <path d="M18.81 9.41992C19.71 11.5699 19.44 14.0799 18 15.9999" stroke="currentcolor" stroke-width="1.5" stroke-linecap="round" stroke-linejoin="round"/> <path d="M21.15 7.80005C22.62 11.29 22.18 15.37 19.83 18.5" stroke="currentcolor" stroke-width="1.5" stroke-linecap="round" stroke-linejoin="round"/> <path d="M22 2L2 22" stroke="currentcolor" stroke-width="1.5" stroke-linecap="round" stroke-linejoin="round"/> </g>

</svg>